<svg width="247" height="112" viewBox="0 0 247 112" fill="none" xmlns="http://www.w3.org/2000/svg">
<g filter="url(#filter0_d_104_3)">
<path d="M16.992 85.0001V78.3761L45.504 43.1441H18.144V36.0401H55.584V42.6641L27.168 77.8961H55.776V85.0001H16.992ZM78.03 85.0001V29.1281L64.398 35.6561V27.6881L80.43 18.9521H86.286V85.0001H78.03ZM129.194 85.7681C121.066 85.7681 115.306 84.9361 111.914 83.2721C108.586 81.5441 106.474 78.5361 105.578 74.2481C104.746 69.9601 104.33 62.5361 104.33 51.9761C104.33 41.4161 104.746 33.9921 105.578 29.7041C106.474 25.4161 108.586 22.4401 111.914 20.7761C115.306 19.0481 121.066 18.1841 129.194 18.1841C137.322 18.1841 143.05 19.0481 146.378 20.7761C149.77 22.4401 151.882 25.4481 152.714 29.8001C153.61 34.0881 154.058 41.4801 154.058 51.9761C154.058 62.5361 153.61 69.9601 152.714 74.2481C151.882 78.5361 149.77 81.5441 146.378 83.2721C143.05 84.9361 137.322 85.7681 129.194 85.7681ZM129.194 78.0881C135.082 78.0881 139.018 77.6721 141.002 76.8401C143.05 75.9441 144.362 73.8961 144.938 70.6961C145.514 67.4961 145.802 61.2561 145.802 51.9761C145.802 42.6961 145.514 36.4561 144.938 33.2561C144.362 30.0561 143.05 28.0401 141.002 27.2081C139.018 26.3121 135.082 25.8641 129.194 25.8641C123.306 25.8641 119.338 26.3121 117.29 27.2081C115.242 28.0401 113.93 30.0561 113.354 33.2561C112.778 36.4561 112.49 42.6961 112.49 51.9761C112.49 61.2561 112.778 67.4961 113.354 70.6961C113.93 73.8961 115.242 75.9441 117.29 76.8401C119.338 77.6721 123.306 78.0881 129.194 78.0881ZM193.694 85.7681C185.566 85.7681 179.806 84.9361 176.414 83.2721C173.086 81.5441 170.974 78.5361 170.078 74.2481C169.246 69.9601 168.83 62.5361 168.83 51.9761C168.83 41.4161 169.246 33.9921 170.078 29.7041C170.974 25.4161 173.086 22.4401 176.414 20.7761C179.806 19.0481 185.566 18.1841 193.694 18.1841C201.822 18.1841 207.55 19.0481 210.878 20.7761C214.27 22.4401 216.382 25.4481 217.214 29.8001C218.11 34.0881 218.558 41.4801 218.558 51.9761C218.558 62.5361 218.11 69.9601 217.214 74.2481C216.382 78.5361 214.27 81.5441 210.878 83.2721C207.55 84.9361 201.822 85.7681 193.694 85.7681ZM193.694 78.0881C199.582 78.0881 203.518 77.6721 205.502 76.8401C207.55 75.9441 208.862 73.8961 209.438 70.6961C210.014 67.4961 210.302 61.2561 210.302 51.9761C210.302 42.6961 210.014 36.4561 209.438 33.2561C208.862 30.0561 207.55 28.0401 205.502 27.2081C203.518 26.3121 199.582 25.8641 193.694 25.8641C187.806 25.8641 183.838 26.3121 181.79 27.2081C179.742 28.0401 178.43 30.0561 177.854 33.2561C177.278 36.4561 176.99 42.6961 176.99 51.9761C176.99 61.2561 177.278 67.4961 177.854 70.6961C178.43 73.8961 179.742 75.9441 181.79 76.8401C183.838 77.6721 187.806 78.0881 193.694 78.0881Z" fill="#00FFF0"/>
</g>
<defs>
<filter id="filter0_d_104_3" x="0.992004" y="0.184082" width="245.565" height="111.584" filterUnits="userSpaceOnUse" color-interpolation-filters="sRGB">
<feFlood flood-opacity="0" result="BackgroundImageFix"/>
<feColorMatrix in="SourceAlpha" type="matrix" values="0 0 0 0 0 0 0 0 0 0 0 0 0 0 0 0 0 0 127 0" result="hardAlpha"/>
<feOffset dx="6" dy="4"/>
<feGaussianBlur stdDeviation="11"/>
<feComposite in2="hardAlpha" operator="out"/>
<feColorMatrix type="matrix" values="0 0 0 0 0 0 0 0 0 0.970833 0 0 0 0 0.970833 0 0 0 0.25 0"/>
<feBlend mode="normal" in2="BackgroundImageFix" result="effect1_dropShadow_104_3"/>
<feBlend mode="normal" in="SourceGraphic" in2="effect1_dropShadow_104_3" result="shape"/>
</filter>
</defs>
</svg>
